<?xml version="1.0" standalone="no"?>
<!DOCTYPE svg PUBLIC "-//W3C//DTD SVG 20010904//EN"
 "http://www.w3.org/TR/2001/REC-SVG-20010904/DTD/svg10.dtd">
<svg version="1.0" xmlns="http://www.w3.org/2000/svg"
 width="500.000000pt" height="500.000000pt" viewBox="0 0 500.000000 500.000000"
 preserveAspectRatio="xMidYMid meet">

<g transform="translate(0.000000,500.000000) scale(0.100000,-0.100000)"
fill="#000000" stroke="none">
<path d="M2645 4740 c3 -5 30 -10 59 -10 38 0 61 -6 79 -20 16 -13 40 -20 66
-20 23 0 59 -9 81 -20 22 -11 52 -20 67 -20 15 0 42 -9 58 -20 17 -11 42 -20
56 -20 15 0 32 -6 38 -14 7 -8 27 -18 44 -22 18 -3 43 -15 56 -25 13 -11 32
-19 42 -19 10 0 21 -5 25 -11 3 -6 21 -18 38 -26 17 -8 49 -25 71 -38 22 -14
51 -30 65 -37 14 -7 46 -28 72 -48 25 -19 74 -55 108 -80 33 -25 84 -70 114
-100 29 -30 73 -74 98 -97 26 -23 49 -51 53 -61 3 -11 12 -23 20 -26 8 -3 30
-29 49 -58 18 -30 48 -69 66 -88 17 -18 42 -53 54 -76 12 -23 30 -49 39 -58 9
-10 17 -28 17 -41 0 -15 7 -26 20 -30 11 -3 20 -14 20 -24 0 -10 9 -30 20 -44
11 -14 20 -31 20 -39 1 -7 9 -31 20 -53 11 -22 19 -45 20 -52 0 -6 14 -23 30
-36 31 -26 39 -47 19 -47 -17 0 -1 -52 22 -73 14 -13 17 -25 13 -43 -5 -18 0
-34 15 -54 13 -18 21 -44 21 -68 0 -21 6 -44 13 -51 10 -11 10 -14 0 -18 -7
-3 -13 -17 -13 -33 0 -39 18 -83 30 -75 5 3 10 -2 11 -12 0 -10 5 -2 11 16 5
19 8 45 5 58 -2 14 1 23 8 23 9 0 11 -25 7 -97 -3 -54 -8 -100 -12 -103 -22
-17 -18 -43 12 -70 25 -23 29 -32 20 -43 -8 -9 -9 -24 -2 -48 12 -42 12 -48 0
-29 -16 25 -12 -8 6 -42 12 -22 13 -33 4 -38 -7 -4 -9 -17 -4 -35 l7 -28 18
24 c12 16 19 41 19 72 0 30 4 46 10 42 6 -4 10 6 10 23 0 16 3 44 6 61 6 27 3
33 -15 38 -11 3 -21 12 -21 20 0 8 -7 21 -15 29 -15 16 -20 60 -9 88 11 29 24
17 24 -21 0 -53 12 -69 34 -48 22 23 21 69 -3 86 -18 13 -25 38 -22 80 1 9 10
19 21 22 15 4 20 14 20 37 0 23 -5 33 -20 37 -24 6 -26 21 -5 30 9 3 22 -2 30
-13 13 -17 14 -15 15 27 0 30 -6 51 -15 59 -8 7 -15 9 -15 6 0 -4 -10 2 -22
14 -12 11 -27 20 -34 20 -15 0 -24 23 -24 60 0 16 -7 30 -16 34 -8 3 -12 10
-9 16 3 5 1 10 -5 10 -6 0 -10 10 -8 23 4 28 32 29 36 0 2 -12 10 -27 18 -33
12 -11 14 -6 14 25 0 28 -5 38 -20 42 -14 4 -20 14 -20 34 0 18 -8 34 -20 41
-12 8 -20 24 -20 40 0 17 -8 33 -20 40 -11 7 -20 23 -20 36 0 21 -4 23 -25 18
-26 -7 -33 2 -15 20 13 13 -1 54 -24 73 -9 7 -16 20 -16 27 0 8 -11 19 -25 24
-15 6 -25 17 -25 30 0 14 -7 20 -21 20 -16 0 -20 5 -17 24 3 27 -69 123 -147
195 -25 23 -45 43 -45 46 0 7 -93 97 -160 155 -35 30 -72 63 -82 72 -9 9 -32
24 -50 34 -18 9 -41 23 -51 32 -18 16 -46 33 -87 54 -14 6 -33 20 -43 30 -10
10 -26 18 -37 18 -10 0 -22 5 -26 11 -3 6 -25 19 -48 30 -22 10 -48 23 -56 27
-8 5 -35 18 -60 29 -25 11 -65 30 -90 42 -25 11 -53 21 -63 21 -11 0 -30 9
-44 20 -17 13 -41 20 -70 20 -24 0 -61 9 -83 20 -22 11 -56 20 -77 20 -21 0
-67 9 -101 20 -67 21 -198 28 -187 10z m1785 -1430 c0 -11 -4 -20 -9 -20 -5 0
-7 9 -4 20 3 11 7 20 9 20 2 0 4 -9 4 -20z m74 -116 c4 -10 1 -14 -6 -12 -15
5 -23 28 -10 28 5 0 13 -7 16 -16z m46 -139 c0 -15 -6 -25 -14 -25 -8 0 -17
-8 -20 -17 -2 -10 -4 -4 -3 12 3 49 37 77 37 30z"/>
<path d="M2055 4576 c-27 -8 -81 -18 -120 -22 -38 -3 -79 -11 -90 -17 -11 -6
-42 -16 -70 -23 -70 -18 -144 -43 -180 -60 -16 -7 -45 -17 -63 -20 -18 -4 -35
-10 -38 -15 -2 -5 -24 -14 -47 -20 -23 -6 -47 -15 -53 -20 -6 -5 -35 -22 -65
-38 -256 -136 -556 -420 -717 -676 -149 -239 -249 -511 -282 -770 -30 -232
-32 -261 -21 -375 6 -63 11 -149 11 -190 1 -41 7 -93 15 -115 8 -22 20 -69 25
-105 6 -35 15 -69 20 -75 5 -6 14 -33 20 -59 9 -43 53 -146 97 -231 97 -185
82 -160 198 -331 20 -28 82 -96 138 -150 231 -222 310 -289 404 -344 53 -30
112 -65 132 -76 62 -37 159 -84 173 -84 8 0 23 -6 34 -14 11 -8 37 -17 57 -21
21 -4 54 -16 74 -26 21 -11 51 -19 69 -19 17 0 51 -8 75 -19 46 -19 142 -23
147 -6 2 6 -15 13 -37 17 -22 4 -53 14 -70 22 -16 9 -38 16 -49 16 -24 0 -154
45 -201 70 -20 11 -59 30 -86 43 -63 28 -208 124 -295 193 -120 95 -285 265
-343 354 -81 125 -155 256 -183 325 -14 33 -31 74 -38 90 -45 99 -93 263 -101
345 -4 36 -13 92 -21 125 -15 67 -18 337 -4 420 4 28 15 93 23 147 8 53 18
102 22 109 5 7 14 37 21 68 23 100 89 256 162 383 102 176 110 188 221 321 93
112 365 344 451 385 14 6 32 16 40 22 8 5 26 14 40 20 14 5 32 14 40 20 39 25
210 100 228 100 11 0 39 9 63 20 24 11 58 20 75 20 18 0 51 9 75 20 30 13 66
20 110 20 37 0 104 7 150 17 108 21 314 20 384 -1 28 -9 69 -16 93 -16 23 0
60 -9 82 -20 22 -11 56 -20 77 -20 21 -1 56 -9 78 -20 22 -11 48 -19 58 -20 9
0 34 -9 54 -20 21 -11 47 -20 59 -20 12 0 27 -6 33 -14 7 -8 25 -18 41 -21 16
-3 34 -12 40 -20 6 -8 24 -17 40 -20 16 -3 34 -12 40 -20 6 -8 25 -17 41 -20
16 -4 29 -10 29 -14 0 -9 78 -61 91 -61 5 0 17 -8 27 -17 28 -28 80 -63 92
-63 5 0 10 -6 10 -13 0 -16 53 -57 74 -57 9 0 20 -9 26 -20 6 -12 22 -25 36
-30 13 -5 24 -17 24 -25 0 -13 4 -14 21 -5 19 11 19 13 5 29 -9 10 -16 22 -16
27 0 5 -28 37 -62 71 -35 33 -99 96 -143 139 -44 44 -105 96 -135 116 -30 20
-70 51 -89 68 -18 16 -39 30 -46 30 -6 0 -20 9 -30 20 -10 11 -25 20 -33 20
-7 0 -26 8 -40 18 -80 52 -180 102 -206 102 -12 0 -34 9 -51 20 -16 11 -40 20
-52 20 -13 0 -37 9 -55 20 -18 11 -49 20 -68 20 -19 0 -48 9 -65 20 -22 15
-47 20 -96 20 -37 0 -86 7 -110 16 -63 23 -422 30 -494 10z"/>
<path d="M3864 3756 c-8 -21 3 -36 26 -36 16 0 18 4 11 22 -10 27 -29 35 -37
14z"/>
<path d="M3906 3694 c-8 -21 43 -93 67 -94 14 0 7 51 -9 57 -8 3 -20 16 -25
29 -10 28 -24 31 -33 8z"/>
<path d="M3990 3567 c0 -14 3 -27 8 -29 4 -1 14 -16 22 -32 8 -16 21 -31 28
-34 19 -6 14 33 -7 52 -11 10 -21 27 -23 39 -4 30 -28 34 -28 4z"/>
<path d="M4070 3433 c0 -14 19 -38 25 -32 8 8 -5 39 -16 39 -5 0 -9 -3 -9 -7z"/>
<path d="M4110 3351 c0 -5 5 -13 10 -16 6 -3 10 -2 10 4 0 5 -4 13 -10 16 -5
3 -10 2 -10 -4z"/>
<path d="M4550 3303 c1 -5 7 -19 15 -33 l14 -25 1 33 c0 22 -5 32 -15 32 -8 0
-15 -3 -15 -7z"/>
<path d="M4622 3027 c-14 -17 -28 -107 -17 -107 4 0 19 12 32 26 17 18 23 35
21 57 -3 34 -19 45 -36 24z"/>
<path d="M4670 2848 c0 -13 4 -38 9 -56 8 -26 7 -34 -5 -39 -7 -3 -14 -17 -14
-32 l0 -26 20 25 c16 20 20 38 18 84 -2 37 -8 61 -15 64 -8 2 -13 -5 -13 -20z"/>
<path d="M4554 2433 c2 -13 0 -23 -5 -23 -5 0 -9 -9 -9 -19 0 -10 -7 -21 -15
-25 -8 -3 -12 -12 -9 -20 3 -9 -3 -17 -15 -21 -12 -3 -19 -10 -16 -15 3 -5 1
-11 -5 -15 -5 -3 -10 2 -11 12 0 16 -1 16 -9 -2 -5 -11 -9 -16 -9 -11 -1 5 -8
3 -16 -4 -18 -15 -20 -69 -2 -75 8 -4 11 -20 9 -50 -3 -35 -8 -46 -25 -51 -39
-12 -51 -57 -21 -78 20 -15 10 -37 -26 -58 -24 -14 -30 -24 -30 -53 0 -19 5
-35 10 -35 14 0 13 -47 -1 -56 -6 -3 -15 0 -20 7 -12 19 -29 -6 -29 -43 0 -18
-5 -28 -15 -28 -18 0 -35 -31 -35 -62 0 -13 -9 -29 -20 -36 -11 -7 -20 -22
-20 -33 0 -11 -9 -32 -20 -46 -11 -14 -20 -33 -20 -42 0 -9 -18 -36 -40 -60
-22 -25 -40 -52 -40 -60 0 -9 -9 -22 -20 -29 -11 -7 -20 -19 -20 -27 0 -8 -9
-19 -20 -25 -11 -6 -20 -15 -20 -20 0 -23 -72 -108 -205 -244 -44 -46 -67 -64
-123 -101 -8 -5 -25 -18 -36 -28 -12 -10 -28 -24 -36 -31 -8 -7 -23 -16 -32
-19 -10 -4 -18 -10 -18 -15 0 -6 -25 -22 -56 -38 -30 -15 -60 -36 -65 -46 -5
-10 -16 -18 -25 -18 -8 0 -27 -8 -42 -18 -47 -31 -66 -42 -108 -61 -23 -11
-45 -24 -48 -30 -4 -6 -15 -11 -24 -11 -10 0 -34 -9 -55 -20 -20 -11 -47 -20
-59 -20 -13 0 -36 -9 -53 -20 -16 -11 -41 -20 -55 -20 -14 0 -38 -9 -55 -20
-16 -11 -46 -20 -66 -20 -20 0 -56 -9 -80 -20 -32 -14 -67 -20 -124 -20 -44
-1 -98 -7 -120 -15 -54 -20 -309 -20 -439 0 -55 8 -114 15 -133 15 -18 0 -59
9 -90 19 -32 11 -76 22 -97 26 -55 9 -195 55 -202 66 -3 5 -12 9 -21 9 -15 0
-124 43 -153 61 -8 5 -25 13 -37 18 -129 57 -303 162 -406 245 -96 79 -299
286 -338 346 -20 30 -66 101 -103 156 -36 56 -66 106 -66 111 0 5 -27 63 -60
127 -33 65 -60 125 -60 134 0 10 -9 34 -20 55 -11 20 -20 50 -20 66 0 15 -9
39 -19 53 -12 15 -22 49 -27 86 -3 34 -10 62 -14 62 -11 0 -22 -84 -15 -113 4
-14 13 -28 21 -31 9 -3 14 -20 14 -44 0 -24 8 -49 20 -65 11 -14 20 -38 20
-54 0 -31 33 -132 69 -208 77 -164 144 -289 185 -346 25 -35 52 -75 58 -89 7
-14 26 -41 43 -61 16 -19 44 -53 60 -74 52 -67 276 -288 369 -364 102 -83 191
-143 291 -195 39 -21 93 -49 120 -64 42 -23 181 -80 335 -137 19 -8 56 -16 83
-19 26 -3 61 -12 77 -21 16 -8 55 -15 87 -15 32 0 83 -7 113 -16 39 -11 117
-17 265 -21 182 -5 215 -3 250 12 22 9 83 20 136 24 63 5 104 13 120 24 13 9
42 17 64 17 22 1 58 9 80 20 22 11 47 19 55 20 8 0 32 9 53 20 20 11 48 20 61
20 13 0 35 9 49 20 14 11 35 20 47 20 11 0 38 9 58 19 20 11 48 24 62 30 14 6
43 22 65 36 22 13 47 27 55 30 34 14 153 96 163 112 4 7 12 13 17 13 18 0 180
135 252 209 24 25 71 73 106 107 34 35 62 67 62 72 0 6 7 12 15 16 8 3 15 17
15 30 0 18 4 24 14 20 8 -3 19 4 26 16 6 12 19 30 28 40 45 49 62 73 62 91 0
11 7 22 15 25 10 4 15 20 15 44 0 30 4 37 17 36 22 -1 31 43 12 55 -10 6 -10
13 -1 31 l11 23 7 -23 c9 -30 28 -23 32 13 2 16 12 35 23 43 23 16 24 35 4 52
-21 17 -19 36 7 60 28 25 26 89 -3 136 -15 25 -16 33 -6 37 15 6 41 -29 32
-43 -3 -5 4 -14 15 -20 11 -6 20 -18 20 -26 0 -34 25 -5 28 32 2 22 12 47 23
57 12 12 19 31 19 57 0 35 -3 40 -24 40 -20 0 -24 -6 -30 -40 -3 -22 -11 -40
-16 -40 -16 0 -32 41 -25 67 3 14 6 74 6 133 0 82 4 112 15 121 11 9 13 26 8
75 -6 61 -6 64 24 91 39 36 51 91 26 127 -9 15 -23 25 -30 22 -7 -3 -15 0 -18
7 -4 7 -4 2 -2 -10z m-57 -179 c8 -21 -8 -36 -27 -24 -10 6 -11 10 -3 10 7 0
10 7 7 15 -4 8 -1 15 5 15 7 0 14 -7 18 -16z m20 -6 c-3 -8 -6 -5 -6 6 -1 11
2 17 5 13 3 -3 4 -12 1 -19z"/>
<path d="M4692 2294 c-1 -28 -8 -72 -16 -97 -7 -25 -11 -48 -8 -51 3 -4 0 -6
-8 -6 -10 0 -10 -3 0 -15 7 -8 16 -15 21 -15 12 0 21 78 17 160 -3 56 -5 62
-6 24z"/>
<path d="M4560 2008 c0 -18 5 -40 10 -48 7 -11 10 -2 10 33 0 26 -4 47 -10 47
-5 0 -10 -15 -10 -32z"/>
<path d="M4515 1607 c-4 -10 -5 -21 -1 -24 10 -10 18 4 13 24 -4 17 -4 17 -12
0z"/>
<path d="M2046 620 c18 -18 230 -18 219 0 -4 6 -54 10 -118 10 -73 0 -108 -3
-101 -10z"/>
</g>
</svg>
